<svg width="1501" height="851" viewBox="0 0 1501 851" fill="none" xmlns="http://www.w3.org/2000/svg">
<path fill-rule="evenodd" clip-rule="evenodd" d="M555.52 173.636C543.815 173.636 533.442 166.093 529.835 154.957L485.686 18.6788C477.617 -6.22629 442.383 -6.22625 434.314 18.6788L390.165 154.957C386.558 166.093 376.185 173.636 364.48 173.636L221.442 173.636C195.306 173.636 184.418 207.064 205.541 222.457L321.398 306.881C330.833 313.756 334.781 325.917 331.183 337.023L329.158 343.275C325.283 355.237 313.663 362.83 301.093 362.508C298.073 362.431 295.042 362.392 292 362.392C130.733 362.392 0 471.635 0 606.392C0 741.15 130.733 850.392 292 850.392C451.215 850.392 580.669 743.912 583.937 611.523V611.523C583.801 622.496 592.587 631.5 603.559 631.635L1350.16 640.842C1374.21 641.139 1385.9 670.368 1368.68 687.166L1297.49 756.623C1287.61 766.265 1287.41 782.093 1297.06 791.976C1306.7 801.858 1322.53 802.054 1332.41 792.412L1493.46 635.287C1503.34 625.645 1503.54 609.817 1493.89 599.934L1336.77 438.885C1327.13 429.002 1311.3 428.807 1301.42 438.449C1291.53 448.091 1291.34 463.919 1300.98 473.802L1370.44 544.993C1387.24 562.211 1374.83 591.143 1350.78 590.846L609.306 581.702C595.5 581.532 584.17 592.586 584 606.392V606.392C584 544.605 556.516 488.181 511.206 445.192L591.451 503.666C612.596 519.074 641.101 498.413 633.038 473.524L588.817 337.023C585.219 325.917 589.167 313.756 598.602 306.881L714.459 222.457C735.582 207.064 724.694 173.636 698.558 173.636L555.52 173.636Z" fill="#D9D9D9"/>
</svg>
